<svg width="1200" height="1120" viewBox="0 0 1200 1120" fill="none" xmlns="http://www.w3.org/2000/svg">
  <defs>
    <linearGradient id="bg" x1="100" y1="70" x2="1080" y2="710" gradientUnits="userSpaceOnUse">
      <stop stop-color="#F6F5EF"/>
      <stop offset="1" stop-color="#ECEBE4"/>
    </linearGradient>
    <radialGradient id="glow" cx="0" cy="0" r="1" gradientUnits="userSpaceOnUse" gradientTransform="translate(932 640) rotate(148.412) scale(332.505 237.827)">
      <stop stop-color="#CBD5FF" stop-opacity="0.8"/>
      <stop offset="1" stop-color="#CBD5FF" stop-opacity="0"/>
    </radialGradient>
    <linearGradient id="today-pill" x1="446" y1="210" x2="446" y2="260" gradientUnits="userSpaceOnUse">
      <stop stop-color="#4B5563"/>
      <stop offset="1" stop-color="#1F2937"/>
    </linearGradient>
  </defs>
  <rect width="1200" height="1120" fill="url(#bg)"/>
  <rect width="1200" height="1120" fill="url(#glow)"/>
  <rect x="188" y="64" width="824" height="992" rx="34" fill="#FCFCF9"/>
  <rect x="188.75" y="64.75" width="822.5" height="990.5" rx="33.25" stroke="#DDDCD3" stroke-width="1.5"/>
  <circle cx="232" cy="112" r="15" fill="#FF6259"/>
  <circle cx="280" cy="112" r="15" fill="#FFBD44"/>
  <circle cx="328" cy="112" r="15" fill="#28C840"/>
  <path d="M952.503 120.304 971.696 139.497l-6.576 2.188-9.496 9.496 1.655 15.89-2.519 2.481-10.55-13.716-13.715 10.55-2.482-2.519 1.655-15.89 9.496-9.496 2.188-6.576Z" fill="#A0A7B2"/>

  <text x="250" y="222" fill="#1F2937" font-size="54" font-style="italic" font-family="Instrument Serif, Georgia, serif">March 17th</text>
  <rect x="448" y="172" width="150" height="48" rx="24" fill="url(#today-pill)"/>
  <text x="523" y="205" fill="white" font-size="22" font-weight="700" text-anchor="middle" font-family="Arial, Helvetica, sans-serif" letter-spacing="2">TODAY</text>
  <text x="638" y="204" fill="#9CA3AF" font-size="26" font-family="Arial, Helvetica, sans-serif">Seoul</text>

  <text x="252" y="300" fill="#1F2937" font-size="29" font-family="Arial, Helvetica, sans-serif">couldn’t agree more</text>
  <text x="252" y="344" fill="#3B82F6" font-size="24" font-family="Arial, Helvetica, sans-serif" text-decoration="underline">https://www.youtube.com/watch?v=ZJEnQ0sMt-sU</text>

  <text x="252" y="430" fill="#1F2937" font-size="29" font-family="Arial, Helvetica, sans-serif">might be a good idea for marketing website</text>
  <text x="252" y="474" fill="#3B82F6" font-size="24" font-family="Arial, Helvetica, sans-serif" text-decoration="underline">https://x.com/RomaTesla/status/2033528717155373390</text>
  <text x="252" y="506" fill="#3B82F6" font-size="24" font-family="Arial, Helvetica, sans-serif" text-decoration="underline">?s=20</text>

  <text x="252" y="586" fill="#1F2937" font-size="29" font-family="Arial, Helvetica, sans-serif">nice tool</text>
  <text x="382" y="586" fill="#3B82F6" font-size="24" font-family="Arial, Helvetica, sans-serif" text-decoration="underline">https://dither.neato.fun</text>

  <text x="252" y="662" fill="#1F2937" font-size="29" font-family="Arial, Helvetica, sans-serif">distribution &amp; development. after coming back from america,</text>
  <text x="252" y="700" fill="#1F2937" font-size="29" font-family="Arial, Helvetica, sans-serif">keep the work moving without rebuilding the list from scratch.</text>

  <rect x="252" y="774" width="34" height="34" stroke="#1F2937" stroke-width="4"/>
  <text x="306" y="801" fill="#1F2937" font-size="29" font-family="Arial, Helvetica, sans-serif">study remotion skills</text>
  <rect x="664" y="769" width="118" height="40" rx="20" fill="#FEF3C7" stroke="#FDE68A" stroke-width="2"/>
  <text x="723" y="796" fill="#92400E" font-size="21" font-weight="700" text-anchor="middle" font-family="Arial, Helvetica, sans-serif">Today</text>

  <rect x="252" y="834" width="34" height="34" stroke="#1F2937" stroke-width="4"/>
  <text x="306" y="861" fill="#1F2937" font-size="29" font-family="Arial, Helvetica, sans-serif">export the Hilton reservation</text>
  <rect x="700" y="829" width="118" height="40" rx="20" fill="#FEF3C7" stroke="#FDE68A" stroke-width="2"/>
  <text x="759" y="856" fill="#92400E" font-size="21" font-weight="700" text-anchor="middle" font-family="Arial, Helvetica, sans-serif">Today</text>

  <rect x="252" y="894" width="34" height="34" stroke="#1F2937" stroke-width="4"/>
  <text x="306" y="921" fill="#1F2937" font-size="29" font-family="Arial, Helvetica, sans-serif" font-weight="700">finish q2 planning</text>
  <text x="585" y="921" fill="#1F2937" font-size="29" font-family="Arial, Helvetica, sans-serif">to prepare for the next quarter</text>
  <rect x="646" y="940" width="124" height="42" rx="21" fill="#DBEAFE" stroke="#BFDBFE" stroke-width="2"/>
  <text x="708" y="968" fill="#1D4ED8" font-size="22" font-weight="700" text-anchor="middle" font-family="Arial, Helvetica, sans-serif">Mar 20</text>

  <rect x="306" y="1004" width="34" height="34" stroke="#1F2937" stroke-width="4"/>
  <text x="362" y="1029" fill="#1F2937" font-size="26" font-family="Arial, Helvetica, sans-serif">create the document and wire up</text>
  <text x="362" y="1060" fill="#1F2937" font-size="26" font-family="Arial, Helvetica, sans-serif">a deterministic report script</text>
</svg>
